<mxfile host="app.diagrams.net" modified="2022-02-16T07:53:57.565Z" agent="5.0 (Macintosh; Intel Mac OS X 10_15_7) AppleWebKit/537.36 (KHTML, like Gecko) Chrome/97.0.4692.99 Safari/537.36" etag="Ml6YxlJshqhFFTdyrcA0" version="16.5.6" type="github">
  <diagram id="0z0_dtok1Ij6bk1odiST" name="Page-1">
    <mxGraphModel dx="1299" dy="868" grid="1" gridSize="10" guides="1" tooltips="1" connect="1" arrows="1" fold="1" page="1" pageScale="1" pageWidth="850" pageHeight="1100" math="0" shadow="0">
      <root>
        <mxCell id="0" />
        <mxCell id="1" parent="0" />
        <mxCell id="jrg8utLBMFztXWpAARq3-1" value="" style="rounded=1;whiteSpace=wrap;html=1;" parent="1" vertex="1">
          <mxGeometry x="40" y="10" width="200" height="280" as="geometry" />
        </mxCell>
        <mxCell id="jrg8utLBMFztXWpAARq3-2" value="" style="verticalLabelPosition=bottom;verticalAlign=top;html=1;shape=mxgraph.basic.diag_snip_rect;dx=6;" parent="1" vertex="1">
          <mxGeometry x="65" y="40" width="100" height="60" as="geometry" />
        </mxCell>
        <mxCell id="jrg8utLBMFztXWpAARq3-24" style="edgeStyle=orthogonalEdgeStyle;rounded=0;orthogonalLoop=1;jettySize=auto;html=1;exitX=0.96;exitY=0.7;exitDx=0;exitDy=0;exitPerimeter=0;entryX=0;entryY=0.5;entryDx=0;entryDy=0;" parent="1" source="jrg8utLBMFztXWpAARq3-3" target="jrg8utLBMFztXWpAARq3-12" edge="1">
          <mxGeometry relative="1" as="geometry" />
        </mxCell>
        <mxCell id="jrg8utLBMFztXWpAARq3-3" value="api" style="ellipse;shape=cloud;whiteSpace=wrap;html=1;" parent="1" vertex="1">
          <mxGeometry x="70" y="130" width="120" height="80" as="geometry" />
        </mxCell>
        <mxCell id="jrg8utLBMFztXWpAARq3-5" value="recruits" style="text;html=1;align=center;verticalAlign=middle;resizable=0;points=[];autosize=1;strokeColor=none;fillColor=none;" parent="1" vertex="1">
          <mxGeometry x="90" y="60" width="50" height="20" as="geometry" />
        </mxCell>
        <mxCell id="jrg8utLBMFztXWpAARq3-6" value="" style="endArrow=classic;startArrow=classic;html=1;rounded=0;entryX=0.5;entryY=1;entryDx=0;entryDy=0;entryPerimeter=0;exitX=0.4;exitY=0.1;exitDx=0;exitDy=0;exitPerimeter=0;" parent="1" source="jrg8utLBMFztXWpAARq3-3" target="jrg8utLBMFztXWpAARq3-2" edge="1">
          <mxGeometry width="50" height="50" relative="1" as="geometry">
            <mxPoint x="380" y="310" as="sourcePoint" />
            <mxPoint x="430" y="260" as="targetPoint" />
          </mxGeometry>
        </mxCell>
        <mxCell id="jrg8utLBMFztXWpAARq3-18" value="index" style="swimlane;" parent="1" vertex="1">
          <mxGeometry x="280" y="110" width="560" height="700" as="geometry" />
        </mxCell>
        <mxCell id="jrg8utLBMFztXWpAARq3-9" value="" style="verticalLabelPosition=bottom;verticalAlign=top;html=1;shape=mxgraph.basic.diag_snip_rect;dx=6;" parent="jrg8utLBMFztXWpAARq3-18" vertex="1">
          <mxGeometry x="190" y="45" width="100" height="60" as="geometry" />
        </mxCell>
        <mxCell id="jrg8utLBMFztXWpAARq3-12" value="setRecruits" style="rounded=0;whiteSpace=wrap;html=1;" parent="jrg8utLBMFztXWpAARq3-18" vertex="1">
          <mxGeometry x="40" y="55" width="90" height="40" as="geometry" />
        </mxCell>
        <mxCell id="jrg8utLBMFztXWpAARq3-20" value="recruits" style="text;html=1;align=center;verticalAlign=middle;resizable=0;points=[];autosize=1;strokeColor=none;fillColor=none;" parent="jrg8utLBMFztXWpAARq3-18" vertex="1">
          <mxGeometry x="215" y="65" width="50" height="20" as="geometry" />
        </mxCell>
        <mxCell id="jrg8utLBMFztXWpAARq3-21" style="edgeStyle=orthogonalEdgeStyle;rounded=0;orthogonalLoop=1;jettySize=auto;html=1;" parent="jrg8utLBMFztXWpAARq3-18" source="jrg8utLBMFztXWpAARq3-12" target="jrg8utLBMFztXWpAARq3-9" edge="1">
          <mxGeometry relative="1" as="geometry" />
        </mxCell>
        <mxCell id="jrg8utLBMFztXWpAARq3-30" value="RecruitsPage" style="swimlane;" parent="jrg8utLBMFztXWpAARq3-18" vertex="1">
          <mxGeometry x="40" y="170" width="200" height="200" as="geometry" />
        </mxCell>
        <mxCell id="jrg8utLBMFztXWpAARq3-34" value="setRecruits" style="rounded=0;whiteSpace=wrap;html=1;" parent="jrg8utLBMFztXWpAARq3-30" vertex="1">
          <mxGeometry x="15" y="40" width="90" height="40" as="geometry" />
        </mxCell>
        <mxCell id="jrg8utLBMFztXWpAARq3-45" value="" style="verticalLabelPosition=bottom;verticalAlign=top;html=1;shape=mxgraph.basic.diag_snip_rect;dx=6;" parent="jrg8utLBMFztXWpAARq3-30" vertex="1">
          <mxGeometry x="15" y="100" width="100" height="60" as="geometry" />
        </mxCell>
        <mxCell id="jrg8utLBMFztXWpAARq3-46" value="recruits" style="text;html=1;align=center;verticalAlign=middle;resizable=0;points=[];autosize=1;strokeColor=none;fillColor=none;" parent="jrg8utLBMFztXWpAARq3-30" vertex="1">
          <mxGeometry x="40" y="120" width="50" height="20" as="geometry" />
        </mxCell>
        <mxCell id="jrg8utLBMFztXWpAARq3-33" value="RecruitCreatePage" style="swimlane;" parent="jrg8utLBMFztXWpAARq3-18" vertex="1">
          <mxGeometry x="280" y="170" width="200" height="200" as="geometry" />
        </mxCell>
        <mxCell id="jrg8utLBMFztXWpAARq3-38" value="setRecruits" style="rounded=0;whiteSpace=wrap;html=1;" parent="jrg8utLBMFztXWpAARq3-33" vertex="1">
          <mxGeometry x="20" y="40" width="90" height="40" as="geometry" />
        </mxCell>
        <mxCell id="jrg8utLBMFztXWpAARq3-32" value="RecruitEditPage" style="swimlane;" parent="jrg8utLBMFztXWpAARq3-18" vertex="1">
          <mxGeometry x="40" y="410" width="200" height="200" as="geometry" />
        </mxCell>
        <mxCell id="jrg8utLBMFztXWpAARq3-37" value="setRecruits" style="rounded=0;whiteSpace=wrap;html=1;" parent="jrg8utLBMFztXWpAARq3-32" vertex="1">
          <mxGeometry x="15" y="40" width="90" height="40" as="geometry" />
        </mxCell>
        <mxCell id="jrg8utLBMFztXWpAARq3-47" value="" style="verticalLabelPosition=bottom;verticalAlign=top;html=1;shape=mxgraph.basic.diag_snip_rect;dx=6;" parent="jrg8utLBMFztXWpAARq3-32" vertex="1">
          <mxGeometry x="15" y="100" width="100" height="60" as="geometry" />
        </mxCell>
        <mxCell id="jrg8utLBMFztXWpAARq3-48" value="recruits" style="text;html=1;align=center;verticalAlign=middle;resizable=0;points=[];autosize=1;strokeColor=none;fillColor=none;" parent="jrg8utLBMFztXWpAARq3-32" vertex="1">
          <mxGeometry x="40" y="120" width="50" height="20" as="geometry" />
        </mxCell>
        <mxCell id="jrg8utLBMFztXWpAARq3-31" value="RecruitDetailPage" style="swimlane;" parent="jrg8utLBMFztXWpAARq3-18" vertex="1">
          <mxGeometry x="280" y="410" width="200" height="200" as="geometry" />
        </mxCell>
        <mxCell id="jrg8utLBMFztXWpAARq3-42" value="" style="verticalLabelPosition=bottom;verticalAlign=top;html=1;shape=mxgraph.basic.diag_snip_rect;dx=6;" parent="jrg8utLBMFztXWpAARq3-31" vertex="1">
          <mxGeometry x="15" y="40" width="100" height="60" as="geometry" />
        </mxCell>
        <mxCell id="jrg8utLBMFztXWpAARq3-43" value="recruits" style="text;html=1;align=center;verticalAlign=middle;resizable=0;points=[];autosize=1;strokeColor=none;fillColor=none;" parent="jrg8utLBMFztXWpAARq3-31" vertex="1">
          <mxGeometry x="40" y="60" width="50" height="20" as="geometry" />
        </mxCell>
        <mxCell id="jrg8utLBMFztXWpAARq3-36" style="edgeStyle=orthogonalEdgeStyle;rounded=0;orthogonalLoop=1;jettySize=auto;html=1;exitX=1;exitY=0.5;exitDx=0;exitDy=0;entryX=0.678;entryY=1.017;entryDx=0;entryDy=0;entryPerimeter=0;" parent="jrg8utLBMFztXWpAARq3-18" source="jrg8utLBMFztXWpAARq3-34" target="jrg8utLBMFztXWpAARq3-9" edge="1">
          <mxGeometry relative="1" as="geometry" />
        </mxCell>
        <mxCell id="jrg8utLBMFztXWpAARq3-40" style="edgeStyle=orthogonalEdgeStyle;rounded=0;orthogonalLoop=1;jettySize=auto;html=1;exitX=1;exitY=0.5;exitDx=0;exitDy=0;entryX=1;entryY=0.5;entryDx=0;entryDy=0;entryPerimeter=0;" parent="jrg8utLBMFztXWpAARq3-18" source="jrg8utLBMFztXWpAARq3-38" target="jrg8utLBMFztXWpAARq3-9" edge="1">
          <mxGeometry relative="1" as="geometry">
            <Array as="points">
              <mxPoint x="500" y="230" />
              <mxPoint x="500" y="75" />
            </Array>
          </mxGeometry>
        </mxCell>
        <mxCell id="jrg8utLBMFztXWpAARq3-44" style="edgeStyle=orthogonalEdgeStyle;rounded=0;orthogonalLoop=1;jettySize=auto;html=1;exitX=1;exitY=0.5;exitDx=0;exitDy=0;entryX=0.686;entryY=1.003;entryDx=0;entryDy=0;entryPerimeter=0;" parent="jrg8utLBMFztXWpAARq3-18" source="jrg8utLBMFztXWpAARq3-37" target="jrg8utLBMFztXWpAARq3-9" edge="1">
          <mxGeometry relative="1" as="geometry" />
        </mxCell>
        <mxCell id="jrg8utLBMFztXWpAARq3-54" value="" style="endArrow=none;dashed=1;html=1;dashPattern=1 3;strokeWidth=2;rounded=0;entryX=0.5;entryY=1;entryDx=0;entryDy=0;exitX=0.5;exitY=0;exitDx=0;exitDy=0;" parent="jrg8utLBMFztXWpAARq3-18" source="jrg8utLBMFztXWpAARq3-34" target="jrg8utLBMFztXWpAARq3-12" edge="1">
          <mxGeometry width="50" height="50" relative="1" as="geometry">
            <mxPoint x="80" y="210" as="sourcePoint" />
            <mxPoint x="80" y="100" as="targetPoint" />
          </mxGeometry>
        </mxCell>
        <mxCell id="jrg8utLBMFztXWpAARq3-58" value="" style="endArrow=none;dashed=1;html=1;dashPattern=1 3;strokeWidth=2;rounded=0;entryX=0.5;entryY=1;entryDx=0;entryDy=0;exitX=0.5;exitY=0;exitDx=0;exitDy=0;" parent="jrg8utLBMFztXWpAARq3-18" source="jrg8utLBMFztXWpAARq3-38" target="jrg8utLBMFztXWpAARq3-12" edge="1">
          <mxGeometry width="50" height="50" relative="1" as="geometry">
            <mxPoint x="140" y="250" as="sourcePoint" />
            <mxPoint x="125" y="135" as="targetPoint" />
          </mxGeometry>
        </mxCell>
        <mxCell id="jrg8utLBMFztXWpAARq3-57" value="" style="endArrow=none;dashed=1;html=1;dashPattern=1 3;strokeWidth=2;rounded=0;exitX=0.5;exitY=0;exitDx=0;exitDy=0;entryX=0.5;entryY=1;entryDx=0;entryDy=0;" parent="jrg8utLBMFztXWpAARq3-18" source="jrg8utLBMFztXWpAARq3-37" target="jrg8utLBMFztXWpAARq3-12" edge="1">
          <mxGeometry width="50" height="50" relative="1" as="geometry">
            <mxPoint x="130" y="240" as="sourcePoint" />
            <mxPoint x="90" y="90" as="targetPoint" />
          </mxGeometry>
        </mxCell>
        <mxCell id="jrg8utLBMFztXWpAARq3-59" value="" style="endArrow=none;dashed=1;html=1;dashPattern=1 3;strokeWidth=2;rounded=0;entryX=0.5;entryY=1;entryDx=0;entryDy=0;exitX=0.5;exitY=0;exitDx=0;exitDy=0;entryPerimeter=0;exitPerimeter=0;" parent="jrg8utLBMFztXWpAARq3-18" source="jrg8utLBMFztXWpAARq3-45" target="jrg8utLBMFztXWpAARq3-9" edge="1">
          <mxGeometry width="50" height="50" relative="1" as="geometry">
            <mxPoint x="355" y="220" as="sourcePoint" />
            <mxPoint x="95" y="105" as="targetPoint" />
          </mxGeometry>
        </mxCell>
        <mxCell id="jrg8utLBMFztXWpAARq3-60" value="" style="endArrow=none;dashed=1;html=1;dashPattern=1 3;strokeWidth=2;rounded=0;entryX=0.5;entryY=1;entryDx=0;entryDy=0;exitX=0.5;exitY=0;exitDx=0;exitDy=0;entryPerimeter=0;exitPerimeter=0;" parent="jrg8utLBMFztXWpAARq3-18" source="jrg8utLBMFztXWpAARq3-47" target="jrg8utLBMFztXWpAARq3-9" edge="1">
          <mxGeometry width="50" height="50" relative="1" as="geometry">
            <mxPoint x="115" y="280" as="sourcePoint" />
            <mxPoint x="250" y="115" as="targetPoint" />
          </mxGeometry>
        </mxCell>
        <mxCell id="jrg8utLBMFztXWpAARq3-61" value="" style="endArrow=none;dashed=1;html=1;dashPattern=1 3;strokeWidth=2;rounded=0;entryX=0.5;entryY=1;entryDx=0;entryDy=0;exitX=0.5;exitY=0;exitDx=0;exitDy=0;entryPerimeter=0;exitPerimeter=0;" parent="jrg8utLBMFztXWpAARq3-18" source="jrg8utLBMFztXWpAARq3-42" target="jrg8utLBMFztXWpAARq3-9" edge="1">
          <mxGeometry width="50" height="50" relative="1" as="geometry">
            <mxPoint x="115" y="520" as="sourcePoint" />
            <mxPoint x="250" y="115" as="targetPoint" />
          </mxGeometry>
        </mxCell>
        <mxCell id="DHKbXbd4KYcz3VGdhYLP-5" value="RecruitsPage" style="swimlane;" vertex="1" parent="1">
          <mxGeometry x="280" y="840" width="360" height="400" as="geometry" />
        </mxCell>
        <mxCell id="DHKbXbd4KYcz3VGdhYLP-6" value="setRecruits" style="rounded=0;whiteSpace=wrap;html=1;" vertex="1" parent="DHKbXbd4KYcz3VGdhYLP-5">
          <mxGeometry x="15" y="40" width="90" height="40" as="geometry" />
        </mxCell>
        <mxCell id="DHKbXbd4KYcz3VGdhYLP-7" value="" style="verticalLabelPosition=bottom;verticalAlign=top;html=1;shape=mxgraph.basic.diag_snip_rect;dx=6;" vertex="1" parent="DHKbXbd4KYcz3VGdhYLP-5">
          <mxGeometry x="145" y="40" width="100" height="60" as="geometry" />
        </mxCell>
        <mxCell id="DHKbXbd4KYcz3VGdhYLP-8" value="recruits" style="text;html=1;align=center;verticalAlign=middle;resizable=0;points=[];autosize=1;strokeColor=none;fillColor=none;" vertex="1" parent="DHKbXbd4KYcz3VGdhYLP-5">
          <mxGeometry x="170" y="60" width="50" height="20" as="geometry" />
        </mxCell>
        <mxCell id="DHKbXbd4KYcz3VGdhYLP-9" value="RecruitsTable" style="swimlane;" vertex="1" parent="DHKbXbd4KYcz3VGdhYLP-5">
          <mxGeometry x="15" y="120" width="325" height="260" as="geometry" />
        </mxCell>
        <mxCell id="DHKbXbd4KYcz3VGdhYLP-10" value="setRecruits" style="rounded=0;whiteSpace=wrap;html=1;" vertex="1" parent="DHKbXbd4KYcz3VGdhYLP-9">
          <mxGeometry x="15" y="40" width="90" height="40" as="geometry" />
        </mxCell>
        <mxCell id="DHKbXbd4KYcz3VGdhYLP-11" value="" style="verticalLabelPosition=bottom;verticalAlign=top;html=1;shape=mxgraph.basic.diag_snip_rect;dx=6;" vertex="1" parent="DHKbXbd4KYcz3VGdhYLP-9">
          <mxGeometry x="145" y="40" width="100" height="60" as="geometry" />
        </mxCell>
        <mxCell id="DHKbXbd4KYcz3VGdhYLP-12" value="recruits" style="text;html=1;align=center;verticalAlign=middle;resizable=0;points=[];autosize=1;strokeColor=none;fillColor=none;" vertex="1" parent="DHKbXbd4KYcz3VGdhYLP-9">
          <mxGeometry x="170" y="60" width="50" height="20" as="geometry" />
        </mxCell>
        <mxCell id="DHKbXbd4KYcz3VGdhYLP-13" value="RecruitTableItem" style="swimlane;" vertex="1" parent="DHKbXbd4KYcz3VGdhYLP-9">
          <mxGeometry x="25" y="120" width="275" height="120" as="geometry" />
        </mxCell>
        <mxCell id="DHKbXbd4KYcz3VGdhYLP-14" value="setRecruits" style="rounded=0;whiteSpace=wrap;html=1;" vertex="1" parent="DHKbXbd4KYcz3VGdhYLP-13">
          <mxGeometry x="15" y="40" width="90" height="40" as="geometry" />
        </mxCell>
        <mxCell id="DHKbXbd4KYcz3VGdhYLP-18" value="" style="endArrow=none;dashed=1;html=1;dashPattern=1 3;strokeWidth=2;rounded=0;entryX=0.5;entryY=1;entryDx=0;entryDy=0;exitX=0.5;exitY=0;exitDx=0;exitDy=0;" edge="1" parent="DHKbXbd4KYcz3VGdhYLP-5" source="DHKbXbd4KYcz3VGdhYLP-10" target="DHKbXbd4KYcz3VGdhYLP-6">
          <mxGeometry width="50" height="50" relative="1" as="geometry">
            <mxPoint x="190" y="-10" as="sourcePoint" />
            <mxPoint x="240" y="-60" as="targetPoint" />
          </mxGeometry>
        </mxCell>
        <mxCell id="DHKbXbd4KYcz3VGdhYLP-20" value="" style="endArrow=none;dashed=1;html=1;dashPattern=1 3;strokeWidth=2;rounded=0;entryX=0.5;entryY=1;entryDx=0;entryDy=0;exitX=0.5;exitY=0;exitDx=0;exitDy=0;" edge="1" parent="DHKbXbd4KYcz3VGdhYLP-5" source="DHKbXbd4KYcz3VGdhYLP-14" target="DHKbXbd4KYcz3VGdhYLP-6">
          <mxGeometry width="50" height="50" relative="1" as="geometry">
            <mxPoint x="95" y="180" as="sourcePoint" />
            <mxPoint x="80" y="100" as="targetPoint" />
          </mxGeometry>
        </mxCell>
        <mxCell id="DHKbXbd4KYcz3VGdhYLP-19" value="" style="endArrow=none;dashed=1;html=1;dashPattern=1 3;strokeWidth=2;rounded=0;entryX=0.5;entryY=0;entryDx=0;entryDy=0;exitX=0.5;exitY=1;exitDx=0;exitDy=0;exitPerimeter=0;entryPerimeter=0;" edge="1" parent="DHKbXbd4KYcz3VGdhYLP-5" source="DHKbXbd4KYcz3VGdhYLP-7" target="DHKbXbd4KYcz3VGdhYLP-11">
          <mxGeometry width="50" height="50" relative="1" as="geometry">
            <mxPoint x="85" y="170" as="sourcePoint" />
            <mxPoint x="70" y="90" as="targetPoint" />
          </mxGeometry>
        </mxCell>
      </root>
    </mxGraphModel>
  </diagram>
</mxfile>
